<?xml version="1.0" encoding="UTF-8"?>
<svg xmlns="http://www.w3.org/2000/svg" xmlns:xlink="http://www.w3.org/1999/xlink" width="12pt" height="17pt" viewBox="0 0 12 17" version="1.1">
<g id="surface1">
<path style=" stroke:none;fill-rule:nonzero;fill:rgb(25.882353%,52.156863%,95.686275%);fill-opacity:1;" d="M 6 11.007812 C 4.578125 11.007812 3.429688 9.871094 3.429688 8.46875 L 3.429688 2.539062 C 3.429688 1.136719 4.578125 0 6 0 C 7.421875 0 8.570312 1.136719 8.570312 2.539062 L 8.570312 8.46875 C 8.570312 9.871094 7.421875 11.007812 6 11.007812 Z M 6 11.007812 "/>
<path style=" stroke:none;fill-rule:nonzero;fill:rgb(20.392157%,65.882353%,32.54902%);fill-opacity:1;" d="M 5.144531 13.894531 L 6.859375 13.894531 L 6.859375 17 L 5.144531 17 Z M 5.144531 13.894531 "/>
<path style=" stroke:none;fill-rule:nonzero;fill:rgb(91.764706%,26.27451%,20.784314%);fill-opacity:1;" d="M 10.296875 8.5 C 10.289062 10.835938 8.367188 12.738281 6 12.738281 C 4.8125 12.738281 3.734375 12.257812 2.957031 11.484375 L 1.757812 12.671875 C 2.84375 13.742188 4.339844 14.410156 6 14.410156 C 9.304688 14.410156 11.984375 11.761719 11.992188 8.496094 L 10.296875 8.496094 Z M 10.296875 8.5 "/>
<path style=" stroke:none;fill-rule:nonzero;fill:rgb(98.431373%,73.72549%,1.960784%);fill-opacity:1;" d="M 2.957031 11.484375 C 2.183594 10.71875 1.703125 9.664062 1.703125 8.5 L 0.0078125 8.5 C 0.0078125 10.125 0.679688 11.601562 1.757812 12.671875 Z M 2.957031 11.484375 "/>
</g>
</svg>
